<?xml version="1.0" encoding="utf-8"?>
<!-- Generator: Adobe Illustrator 21.1.0, SVG Export Plug-In . SVG Version: 6.00 Build 0)  -->
<svg version="1.1" id="Layer_1" xmlns="http://www.w3.org/2000/svg" xmlns:xlink="http://www.w3.org/1999/xlink" x="0px" y="0px"
	 viewBox="0 0 1327 368" style="enable-background:new 0 0 1327 368;" xml:space="preserve">
<style type="text/css">
	.st0{fill:url(#SVGID_1_);}
	.st1{clip-path:url(#SVGID_3_);}
	.st2{opacity:5.000000e-02;}
	.st3{fill:url(#SVGID_4_);}
	.st4{fill:url(#SVGID_5_);}
	.st5{fill:url(#SVGID_6_);}
	.st6{fill:url(#SVGID_7_);}
	.st7{fill:url(#SVGID_8_);}
	.st8{fill:url(#SVGID_9_);}
	.st9{fill:url(#SVGID_10_);}
	.st10{fill:url(#SVGID_11_);}
	.st11{fill:url(#SVGID_12_);}
	.st12{fill:url(#SVGID_13_);}
	.st13{fill:url(#SVGID_14_);}
	.st14{fill:url(#SVGID_15_);}
	.st15{opacity:8.000000e-02;}
	.st16{fill:url(#SVGID_16_);}
	.st17{fill:url(#SVGID_17_);}
	.st18{fill:url(#SVGID_18_);}
	.st19{fill:url(#SVGID_19_);}
	.st20{fill:url(#SVGID_20_);}
	.st21{fill:url(#SVGID_21_);}
	.st22{fill:url(#SVGID_22_);}
	.st23{fill:url(#SVGID_23_);}
	.st24{fill:url(#SVGID_24_);}
	.st25{fill:url(#SVGID_25_);}
	.st26{fill:url(#SVGID_26_);}
	.st27{fill:url(#SVGID_27_);}
	.st28{fill:url(#SVGID_28_);}
	.st29{fill:url(#SVGID_29_);}
	.st30{fill:url(#SVGID_30_);}
	.st31{fill:url(#SVGID_31_);}
	.st32{fill:url(#SVGID_32_);}
	.st33{opacity:3.000000e-02;}
	.st34{clip-path:url(#SVGID_34_);}
	.st35{fill:none;stroke:url(#SVGID_35_);stroke-miterlimit:10;}
	.st36{fill:none;stroke:url(#SVGID_36_);stroke-miterlimit:10;}
	.st37{fill:none;stroke:url(#SVGID_37_);stroke-width:0.75;stroke-miterlimit:10;}
	.st38{fill:none;stroke:url(#SVGID_38_);stroke-miterlimit:10;}
	.st39{fill:none;stroke:#FFC5FC;stroke-miterlimit:10;}
	.st40{fill:none;stroke:#FFEBFF;stroke-miterlimit:10;}
	.st41{fill:none;stroke:url(#SVGID_39_);stroke-width:0.75;stroke-miterlimit:10;}
	.st42{opacity:0.2;}
	.st43{fill:url(#SVGID_40_);}
	.st44{fill:#FF66BB;fill-opacity:0.12;stroke:#FF66BB;stroke-width:1.2;stroke-linecap:round;stroke-linejoin:round;}
	.st45{fill:none;stroke:#FFFFFF;stroke-miterlimit:10;}
	.st46{fill:none;stroke:#FFFFFF;stroke-linecap:round;stroke-linejoin:round;}
	.st47{fill:url(#SVGID_41_);}
	.st48{fill:#FFAB54;fill-opacity:0.1;stroke:url(#SVGID_42_);stroke-width:2;stroke-miterlimit:10;}
	.st49{fill:#99CCFF;fill-opacity:0.2;stroke:url(#SVGID_43_);stroke-width:2;stroke-miterlimit:10;}
	.st50{fill:url(#SVGID_44_);}
	.st51{opacity:0.25;fill:url(#SVGID_45_);enable-background:new    ;}
</style>
<title>PAIR_Banner</title>
<g>
	<g id="Layer_2">
		
			<linearGradient id="SVGID_1_" gradientUnits="userSpaceOnUse" x1="589.7482" y1="-29.8594" x2="712.7582" y2="330.1706" gradientTransform="matrix(1 0 0 -1 0 370)">
			<stop  offset="0" style="stop-color:#EEB5A9"/>
			<stop  offset="1" style="stop-color:#C7E1E6"/>
		</linearGradient>
		<rect class="st0" width="1327" height="368"/>
		<g>
			<defs>
				<rect id="SVGID_2_" width="1327" height="368"/>
			</defs>
			<clipPath id="SVGID_3_">
				<use xlink:href="#SVGID_2_"  style="overflow:visible;"/>
			</clipPath>
			<g class="st1">
				<g class="st2">
					
						<radialGradient id="SVGID_4_" cx="88.645" cy="396.365" r="81.145" gradientTransform="matrix(1 0 0 -1 0 370)" gradientUnits="userSpaceOnUse">
						<stop  offset="0" style="stop-color:#FF6687"/>
						<stop  offset="1" style="stop-color:#FFAB54"/>
					</radialGradient>
					<polygon class="st3" points="169.8,-107.5 7.5,-107.5 169.8,54.8 169.8,-26.4 					"/>
					
						<radialGradient id="SVGID_5_" cx="354.88" cy="292.715" r="71.7233" gradientTransform="matrix(1 0 0 -1 0 370)" gradientUnits="userSpaceOnUse">
						<stop  offset="0" style="stop-color:#FF6687"/>
						<stop  offset="1" style="stop-color:#FFAB54"/>
					</radialGradient>
					<polygon class="st4" points="294,77.3 294,158.4 415.7,36.7 375.2,-3.9 					"/>
					
						<radialGradient id="SVGID_6_" cx="506.29" cy="352.47" r="90.7257" gradientTransform="matrix(1 0 0 -1 0 370)" gradientUnits="userSpaceOnUse">
						<stop  offset="0" style="stop-color:#FF6687"/>
						<stop  offset="1" style="stop-color:#FFAB54"/>
					</radialGradient>
					<polygon class="st5" points="563.7,17.5 448.9,-97.2 448.9,132.3 506.3,74.9 					"/>
					
						<radialGradient id="SVGID_7_" cx="1147.26" cy="342.44" r="90.7257" gradientTransform="matrix(1 0 0 -1 0 370)" gradientUnits="userSpaceOnUse">
						<stop  offset="0" style="stop-color:#FF6687"/>
						<stop  offset="1" style="stop-color:#FFAB54"/>
					</radialGradient>
					<polygon class="st6" points="1147.3,84.9 1204.6,142.3 1204.6,-87.2 1089.9,27.6 					"/>
					
						<radialGradient id="SVGID_8_" cx="1185.99" cy="416.24" r="90.7257" gradientTransform="matrix(1 0 0 -1 0 370)" gradientUnits="userSpaceOnUse">
						<stop  offset="0" style="stop-color:#FF6687"/>
						<stop  offset="1" style="stop-color:#FFAB54"/>
					</radialGradient>
					<polygon class="st7" points="1243.4,-46.2 1128.6,-161 1128.6,68.5 1186,11.1 					"/>
					
						<radialGradient id="SVGID_9_" cx="384.48" cy="322.59" r="81.15" gradientTransform="matrix(1 0 0 -1 0 370)" gradientUnits="userSpaceOnUse">
						<stop  offset="0" style="stop-color:#FF6687"/>
						<stop  offset="1" style="stop-color:#FFAB54"/>
					</radialGradient>
					<polygon class="st8" points="303.3,-33.7 303.3,128.6 465.6,-33.7 384.5,-33.7 					"/>
					
						<radialGradient id="SVGID_10_" cx="499.88" cy="262.84" r="90.7258" gradientTransform="matrix(1 0 0 -1 0 370)" gradientUnits="userSpaceOnUse">
						<stop  offset="0" style="stop-color:#FF6687"/>
						<stop  offset="1" style="stop-color:#FFAB54"/>
					</radialGradient>
					<polygon class="st9" points="499.9,49.8 385.1,164.5 614.6,164.5 557.3,107.2 					"/>
					
						<radialGradient id="SVGID_11_" cx="482.75" cy="442.095" r="90.7226" gradientTransform="matrix(1 0 0 -1 0 370)" gradientUnits="userSpaceOnUse">
						<stop  offset="0" style="stop-color:#FF6687"/>
						<stop  offset="1" style="stop-color:#FFAB54"/>
					</radialGradient>
					<polygon class="st10" points="482.8,-129.5 425.4,-186.9 425.4,42.7 540.1,-72.1 					"/>
					
						<radialGradient id="SVGID_12_" cx="772.21" cy="382.34" r="64.1528" gradientTransform="matrix(1 0 0 -1 0 370)" gradientUnits="userSpaceOnUse">
						<stop  offset="0" style="stop-color:#FF6687"/>
						<stop  offset="1" style="stop-color:#FFAB54"/>
					</radialGradient>
					<polygon class="st11" points="743.5,16.4 800.9,73.7 800.9,-98.4 743.5,-98.4 					"/>
					
						<radialGradient id="SVGID_13_" cx="872.405" cy="412.22" r="90.7226" gradientTransform="matrix(1 0 0 -1 0 370)" gradientUnits="userSpaceOnUse">
						<stop  offset="0" style="stop-color:#FF6687"/>
						<stop  offset="1" style="stop-color:#FFAB54"/>
					</radialGradient>
					<polygon class="st12" points="815,-42.2 757.7,15.2 987.2,15.2 872.4,-99.6 					"/>
					
						<radialGradient id="SVGID_14_" cx="1287.76" cy="362.945" r="32.0782" gradientTransform="matrix(1 0 0 -1 0 370)" gradientUnits="userSpaceOnUse">
						<stop  offset="0" style="stop-color:#FF6687"/>
						<stop  offset="1" style="stop-color:#FFAB54"/>
					</radialGradient>
					<polygon class="st13" points="1267.5,7.1 1308.1,47.6 1308.1,-33.5 					"/>
					
						<radialGradient id="SVGID_15_" cx="1341.9751" cy="375.12" r="40.5725" gradientTransform="matrix(1 0 0 -1 0 370)" gradientUnits="userSpaceOnUse">
						<stop  offset="0" style="stop-color:#FF6687"/>
						<stop  offset="1" style="stop-color:#FFAB54"/>
					</radialGradient>
					<polygon class="st14" points="1301.4,35.5 1382.6,-45.7 1301.4,-45.7 					"/>
				</g>
				<g class="st15">
					
						<radialGradient id="SVGID_16_" cx="152.015" cy="19.15" r="37.4603" gradientTransform="matrix(1 0 0 -1 0 370)" gradientUnits="userSpaceOnUse">
						<stop  offset="0" style="stop-color:#FF6687"/>
						<stop  offset="1" style="stop-color:#FFAB54"/>
					</radialGradient>
					<polygon class="st16" points="104.6,327.2 152,374.5 199.4,327.2 					"/>
					
						<radialGradient id="SVGID_17_" cx="56.84" cy="120.81" r="23.69" gradientTransform="matrix(1 0 0 -1 0 370)" gradientUnits="userSpaceOnUse">
						<stop  offset="0" style="stop-color:#FF6687"/>
						<stop  offset="1" style="stop-color:#FFAB54"/>
					</radialGradient>
					<polygon class="st17" points="80.5,225.5 33.2,225.5 80.5,272.9 					"/>
					
						<radialGradient id="SVGID_18_" cx="310.645" cy="158" r="74.9175" gradientTransform="matrix(1 0 0 -1 0 370)" gradientUnits="userSpaceOnUse">
						<stop  offset="0" style="stop-color:#FF6687"/>
						<stop  offset="1" style="stop-color:#FFAB54"/>
					</radialGradient>
					<polygon class="st18" points="358,212 405.4,164.6 215.9,164.6 310.6,259.4 					"/>
					
						<radialGradient id="SVGID_19_" cx="663.865" cy="146.72" r="74.9175" gradientTransform="matrix(1 0 0 -1 0 370)" gradientUnits="userSpaceOnUse">
						<stop  offset="0" style="stop-color:#FF6687"/>
						<stop  offset="1" style="stop-color:#FFAB54"/>
					</radialGradient>
					<polygon class="st19" points="663.9,175.9 569.1,270.7 758.6,270.7 711.2,223.3 					"/>
					
						<radialGradient id="SVGID_20_" cx="685.59" cy="-12.715" r="37.4604" gradientTransform="matrix(1 0 0 -1 0 370)" gradientUnits="userSpaceOnUse">
						<stop  offset="0" style="stop-color:#FF6687"/>
						<stop  offset="1" style="stop-color:#FFAB54"/>
					</radialGradient>
					<polygon class="st20" points="661.9,430.1 709.3,382.7 661.9,335.3 					"/>
					
						<radialGradient id="SVGID_21_" cx="600.41" cy="17.92" r="52.9724" gradientTransform="matrix(1 0 0 -1 0 370)" gradientUnits="userSpaceOnUse">
						<stop  offset="0" style="stop-color:#FF6687"/>
						<stop  offset="1" style="stop-color:#FFAB54"/>
					</radialGradient>
					<polygon class="st21" points="624.1,328.4 576.7,281 576.7,423.1 624.1,423.1 					"/>
					
						<radialGradient id="SVGID_22_" cx="885.945" cy="16.195" r="74.9191" gradientTransform="matrix(1 0 0 -1 0 370)" gradientUnits="userSpaceOnUse">
						<stop  offset="0" style="stop-color:#FF6687"/>
						<stop  offset="1" style="stop-color:#FFAB54"/>
					</radialGradient>
					<polygon class="st22" points="933.3,353.8 980.7,306.4 791.2,306.4 885.9,401.2 					"/>
					
						<radialGradient id="SVGID_23_" cx="1166.6851" cy="96.36" r="67.0075" gradientTransform="matrix(1 0 0 -1 0 370)" gradientUnits="userSpaceOnUse">
						<stop  offset="0" style="stop-color:#FF6687"/>
						<stop  offset="1" style="stop-color:#FFAB54"/>
					</radialGradient>
					<polygon class="st23" points="1233.7,273.6 1233.7,206.6 1099.7,340.6 1233.7,340.6 					"/>
					
						<radialGradient id="SVGID_24_" cx="1230.135" cy="-21.865" r="33.505" gradientTransform="matrix(1 0 0 -1 0 370)" gradientUnits="userSpaceOnUse">
						<stop  offset="0" style="stop-color:#FF6687"/>
						<stop  offset="1" style="stop-color:#FFAB54"/>
					</radialGradient>
					<rect x="1196.6" y="358.4" class="st24" width="67" height="67"/>
					
						<radialGradient id="SVGID_25_" cx="1293.585" cy="164.515" r="33.505" gradientTransform="matrix(1 0 0 -1 0 370)" gradientUnits="userSpaceOnUse">
						<stop  offset="0" style="stop-color:#FF6687"/>
						<stop  offset="1" style="stop-color:#FFAB54"/>
					</radialGradient>
					<polygon class="st25" points="1260.1,239 1327.1,239 1260.1,172 					"/>
					
						<radialGradient id="SVGID_26_" cx="1325.3149" cy="45.905" r="33.505" gradientTransform="matrix(1 0 0 -1 0 370)" gradientUnits="userSpaceOnUse">
						<stop  offset="0" style="stop-color:#FF6687"/>
						<stop  offset="1" style="stop-color:#FFAB54"/>
					</radialGradient>
					<polygon class="st26" points="1358.8,357.6 1291.8,290.6 1291.8,357.6 					"/>
					
						<radialGradient id="SVGID_27_" cx="128.415" cy="-31.305" r="74.9191" gradientTransform="matrix(1 0 0 -1 0 370)" gradientUnits="userSpaceOnUse">
						<stop  offset="0" style="stop-color:#FF6687"/>
						<stop  offset="1" style="stop-color:#FFAB54"/>
					</radialGradient>
					<polygon class="st27" points="175.8,401.3 223.2,353.9 33.7,353.9 128.4,448.7 					"/>
					
						<radialGradient id="SVGID_28_" cx="249.205" cy="16.275" r="37.4619" gradientTransform="matrix(1 0 0 -1 0 370)" gradientUnits="userSpaceOnUse">
						<stop  offset="0" style="stop-color:#FF6687"/>
						<stop  offset="1" style="stop-color:#FFAB54"/>
					</radialGradient>
					<polygon class="st28" points="225.5,353.7 272.9,401.1 272.9,306.3 					"/>
					
						<radialGradient id="SVGID_29_" cx="431.665" cy="-20.965" r="33.505" gradientTransform="matrix(1 0 0 -1 0 370)" gradientUnits="userSpaceOnUse">
						<stop  offset="0" style="stop-color:#FF6687"/>
						<stop  offset="1" style="stop-color:#FFAB54"/>
					</radialGradient>
					<rect x="398.2" y="357.5" class="st29" width="67" height="67"/>
					
						<radialGradient id="SVGID_30_" cx="486.595" cy="3.44" r="33.5025" gradientTransform="matrix(1 0 0 -1 0 370)" gradientUnits="userSpaceOnUse">
						<stop  offset="0" style="stop-color:#FF6687"/>
						<stop  offset="1" style="stop-color:#FFAB54"/>
					</radialGradient>
					<polygon class="st30" points="453.1,400.1 520.1,400.1 453.1,333.1 					"/>
					
						<radialGradient id="SVGID_31_" cx="697.745" cy="-15.675" r="74.9191" gradientTransform="matrix(1 0 0 -1 0 370)" gradientUnits="userSpaceOnUse">
						<stop  offset="0" style="stop-color:#FF6687"/>
						<stop  offset="1" style="stop-color:#FFAB54"/>
					</radialGradient>
					<polygon class="st31" points="745.1,385.7 792.5,338.3 603,338.3 697.7,433.1 					"/>
					
						<radialGradient id="SVGID_32_" cx="940.605" cy="-11.91" r="74.9175" gradientTransform="matrix(1 0 0 -1 0 370)" gradientUnits="userSpaceOnUse">
						<stop  offset="0" style="stop-color:#FF6687"/>
						<stop  offset="1" style="stop-color:#FFAB54"/>
					</radialGradient>
					<polygon class="st32" points="940.6,429.3 1035.4,334.5 845.8,334.5 893.2,381.9 					"/>
				</g>
			</g>
		</g>
		<g class="st33">
			
				<image style="overflow:visible;enable-background:new    ;" width="5833" height="1836" xlink:href="C584EC368486A2DC.png"  transform="matrix(0.2399 0 0 0.2399 -36.08 -36.03)">
			</image>
		</g>
		<g>
			<defs>
				<rect id="SVGID_33_" width="1327" height="368"/>
			</defs>
			<clipPath id="SVGID_34_">
				<use xlink:href="#SVGID_33_"  style="overflow:visible;"/>
			</clipPath>
			<g class="st34">
				
					<linearGradient id="SVGID_35_" gradientUnits="userSpaceOnUse" x1="680.7466" y1="-765.6194" x2="794.0247" y2="-765.6194" gradientTransform="matrix(0.7071 0.7071 0.7071 -0.7071 373.6592 -1062.78)">
					<stop  offset="0" style="stop-color:#90E39E"/>
					<stop  offset="0.18" style="stop-color:#90E1A4"/>
					<stop  offset="0.42" style="stop-color:#8FDAB6"/>
					<stop  offset="0.7" style="stop-color:#8FCFD4"/>
					<stop  offset="1" style="stop-color:#8EC1FA"/>
				</linearGradient>
				<path class="st35" d="M316.1-40.6h75.1c1.7,0,3,1.3,3,3v75.2c0,1.7-1.3,3-3,3h-75.1c-1.7,0-3-1.3-3-3v-75.2
					C313.1-39.2,314.5-40.6,316.1-40.6z"/>
				
					<linearGradient id="SVGID_36_" gradientUnits="userSpaceOnUse" x1="-25.8798" y1="222.0247" x2="25.91" y2="222.0247" gradientTransform="matrix(1 0 0 -1 0 370)">
					<stop  offset="0" style="stop-color:#90E39E"/>
					<stop  offset="0.18" style="stop-color:#90E1A4"/>
					<stop  offset="0.42" style="stop-color:#8FDAB6"/>
					<stop  offset="0.7" style="stop-color:#8FCFD4"/>
					<stop  offset="1" style="stop-color:#8EC1FA"/>
				</linearGradient>
				<path class="st36" d="M25.4,196.2V99.7c0-0.7-0.6-1.3-1.3-1.3c-0.3,0-0.7,0.1-0.9,0.4L-25,147.1c-0.5,0.5-0.5,1.3,0,1.8
					c0,0,0,0,0,0l48.2,48.2c0.5,0.5,1.3,0.5,1.8,0C25.3,196.9,25.4,196.6,25.4,196.2z"/>
				
					<radialGradient id="SVGID_37_" cx="1172.6202" cy="-461.6877" r="90.0802" gradientTransform="matrix(0.9056 0.4242 0.4242 -0.9056 87.8431 -570.8738)" gradientUnits="userSpaceOnUse">
					<stop  offset="0.73" style="stop-color:#EB71DC"/>
					<stop  offset="0.81" style="stop-color:#E576E1"/>
					<stop  offset="0.91" style="stop-color:#D583EE"/>
					<stop  offset="1" style="stop-color:#C194FF"/>
				</radialGradient>
				<path class="st37" d="M1033.1,436.6l-51.5-142.2c-1-2.8-4.1-4.3-6.9-3.2c0,0,0,0,0,0l-142.2,51.5c-2.8,1-4.3,4.1-3.3,6.9
					c0.5,1.4,1.5,2.5,2.8,3.1l193.7,90.8c2.7,1.3,5.9,0.1,7.2-2.6C1033.6,439.5,1033.6,438,1033.1,436.6z"/>
				
					<linearGradient id="SVGID_38_" gradientUnits="userSpaceOnUse" x1="1099.3716" y1="719.51" x2="1159.4401" y2="719.51" gradientTransform="matrix(-1 0 0 1 2438.8101 -653.01)">
					<stop  offset="0" style="stop-color:#90E39E"/>
					<stop  offset="1" style="stop-color:#FFAE4E"/>
				</linearGradient>
				<path class="st38" d="M1337.1,62.1l-46.7-46.7c-2.4-2.4-6.3-2.4-8.7,0c-1.2,1.2-1.8,2.7-1.8,4.4v93.5c0,3.4,2.7,6.2,6.2,6.2
					c1.6,0,3.2-0.6,4.4-1.8l46.7-46.7C1339.5,68.5,1339.5,64.6,1337.1,62.1C1337.1,62.1,1337.1,62.1,1337.1,62.1z"/>
				<path class="st39" d="M307.1,319.2L202,214.1c-5.4-1.6-9.7,0.1-9.7,3.7V428c0,2.2,1.8,4,4,4c1.1,0,2.1-0.4,2.8-1.2l50.6-50.5
					l54.6-54.5C305.8,324.1,305.8,321.6,307.1,319.2z"/>
				<path class="st40" d="M800.6,25.3l46.7-46.7c1-1,2.7-1,3.7,0l46.7,46.7c1,1,1,2.7,0,3.7l-46.7,46.7c-1,1-2.7,1-3.7,0l-46.7-46.7
					C799.6,28,799.6,26.4,800.6,25.3z"/>
				
					<radialGradient id="SVGID_39_" cx="793.9836" cy="200.24" r="62.0299" gradientTransform="matrix(1 0 0 -1 0 370)" gradientUnits="userSpaceOnUse">
					<stop  offset="0" style="stop-color:#FF6687"/>
					<stop  offset="1" style="stop-color:#FFAB54"/>
				</radialGradient>
				<path class="st41" d="M832.6,192.2l41.5-41.5c4.2-4.2,2-9.6-2.5-9.6H716.6c-2.8,0-5,2.2-5,5v47.4c0,2.8,2.2,5,5,5H816
					C822.6,198.4,829,195.8,832.6,192.2z"/>
				<g class="st42">
					
						<linearGradient id="SVGID_40_" gradientUnits="userSpaceOnUse" x1="479.4456" y1="677.2352" x2="401.2238" y2="716.3461" gradientTransform="matrix(0.8544 0.5197 0.5197 -0.8544 -267.1298 407.6304)">
						<stop  offset="0" style="stop-color:#FFFFFF"/>
						<stop  offset="9.000000e-02" style="stop-color:#FFFFFF;stop-opacity:0.98"/>
						<stop  offset="0.22" style="stop-color:#FFFFFF;stop-opacity:0.91"/>
						<stop  offset="0.36" style="stop-color:#FFFFFF;stop-opacity:0.79"/>
						<stop  offset="0.52" style="stop-color:#FFFFFF;stop-opacity:0.63"/>
						<stop  offset="0.7" style="stop-color:#FFFFFF;stop-opacity:0.43"/>
						<stop  offset="0.87" style="stop-color:#FFFFFF;stop-opacity:0.19"/>
						<stop  offset="1" style="stop-color:#FFFFFF;stop-opacity:0"/>
					</linearGradient>
					<path class="st43" d="M554.4,14L400.6,33.8l8.9,68.8l48.8-6.3C498.3,82.1,532.8,51.4,554.4,14z"/>
				</g>
				<path class="st44" d="M549.2,82l53.5-69.2c1-1.3,0.7-3.1-0.6-4c-0.6-0.4-1.3-0.6-2-0.6L403.5,33.5c-1.6,0.2-2.7,1.6-2.5,3.2
					l8.1,63c0.2,1.6,1.6,2.7,3.2,2.5l131.1-16.8C545.7,85,547.8,83.8,549.2,82z"/>
				<g class="st33">
					
						<image style="overflow:visible;enable-background:new    ;" width="1160" height="700" xlink:href="C584EC368486A2DD.png"  transform="matrix(0.24 0 0 0.2397 364.52 -28.83)">
					</image>
				</g>
				<path class="st45" d="M456.5,198.7l-1.2-23.7c-0.2-2.4-1.1-4.8-2.6-6.7c-4.3-5.5-8.2-11.3-11.9-17.2c-5.5-9-29.5-52.8-32.1-59.7
					c-0.2-0.8-0.2-1.7,0-2.5c1.1-2.7,6-2.1,8.5-0.6c5.5,3.4,10.7,13.7,15.8,21.3c3,4.5,16,14,18.6-0.4l5-56.4c0.6-4.3,3.7-7,8-6.2
					h0.2c3.7,0.8,5.3,4.1,4.9,7.8c-1.3,14-4,50-4.3,52.6c0,0.1,0,0.2,0.1,0.2c0,0,0,0,0,0h0.3c0.2,0,0.4-0.2,0.4-0.3l8-56
					c0.5-4,3.6-7.1,7.6-6.5l1.8,0.3c4,0.6,5.7,5.3,5.1,9.3l-7.8,53.2c0,0.2,0.1,0.4,0.3,0.5l0.4,0.2c0,0,0.1,0,0.1,0c0,0,0,0,0,0
					l8.9-47.4c0.6-4.1,3.9-7,7.9-6.1l0,0c3.7,0.8,5.4,4.8,4.9,8.6l-7.6,48.7c0,0.1,0,0.2,0,0.2l0,0c0.1,0.2,0.3,0.2,0.5,0.1
					c0.1-0.1,0.2-0.1,0.2-0.3l7-34.1c0.7-4.4,4.1-7.6,8.3-6.2l0,0c2.2,1.1,3.5,3.5,3.2,6c-6,42-1.8,60.2-6.8,80
					C506.4,165.7,493,175,493,175l-1.7,28.7L456.5,198.7z"/>
				<path class="st45" d="M475.3,57.3h0.6c3.1,0,6.3,0.6,9.2,1.8l0.3,0.1l1.2-6.6c0.5-2.9-1.4-5.6-4.3-6.1l0,0
					c-2.9-0.5-5.6,1.5-6.1,4.3c0,0.1,0,0.1,0,0.2L475.3,57.3z"/>
				<path class="st45" d="M492.6,62.7L492.6,62.7c2.1,0,4.2,0.4,6.2,1.2l1.8,0.7l0.9-4.3c0.4-2.3-1.1-4.4-3.4-4.8l0,0
					c-2.3-0.4-4.4,1.1-4.8,3.4c0,0,0,0.1,0,0.1L492.6,62.7z"/>
				<path class="st45" d="M505.7,80.1h0.3c2-0.1,3.9,0.2,5.8,0.8l0.2,0.1l0.6-4.9c0.2-1.6-1-3.1-2.7-3.3c0,0,0,0,0,0l0,0
					c-1.7-0.3-3.3,0.9-3.6,2.6L505.7,80.1z"/>
				<path class="st45" d="M458.3,58h0.5c2.8-0.2,5.5,0.2,8.2,1.1l0.3,0.1l0.8-6.2c0.3-2.5-1.5-4.8-4-5.2l0,0c-2.5-0.3-4.9,1.4-5.2,4
					c0,0.1,0,0.1,0,0.2L458.3,58z"/>
				<path class="st45" d="M409.5,91.7c0,0,2.8-1.1,4.2-0.5s4.5,5.2,4.5,5.2l-3.3,2.9c-0.3,0.3-0.7,0.5-1.1,0.6l-0.5,0.2
					c0,0-3.6-7.9-3.7-8S409.5,91.7,409.5,91.7z"/>
				<polygon class="st45" points="438.7,367.8 448.8,198.4 494.3,204.1 521.7,375.8 				"/>
				<path class="st46" d="M70.2,185.7l8.2-6.6l9.9-0.8l3.1,4.4l-3.7,6.5c-1.1,1.5-1.3,4.9,1.1,4.8"/>
				<polyline class="st46" points="72.5,174.1 85.5,174.4 91.7,178.5 97.1,189.4 				"/>
				<polyline class="st46" points="100.5,187.1 97.5,175.3 90.2,168.2 79.2,165.8 75,164.9 				"/>
				<path class="st46" d="M84.4,153.6c3.3,0.1,6.5,0.3,9.8,0.7c2.4,0.5,10,6.7,10.7,8.8s3.6,19.6,3.6,19.6"/>
				<g class="st33">
					
						<image style="overflow:visible;enable-background:new    ;" width="1234" height="846" xlink:href="C584EC368486A2DB.png"  transform="matrix(0.24 0 0 0.24 32.36 25.65)">
					</image>
				</g>
				<g class="st42">
					
						<linearGradient id="SVGID_41_" gradientUnits="userSpaceOnUse" x1="-27.668" y1="598.2162" x2="-9.1979" y2="622.3563" gradientTransform="matrix(-0.9488 0.316 0.316 0.9488 -6.7184 -437.4012)">
						<stop  offset="0" style="stop-color:#FFFFFF;stop-opacity:0"/>
						<stop  offset="1" style="stop-color:#FFFFFF"/>
					</linearGradient>
					<path class="st47" d="M285.5,155.9c1.6-0.3,2.7-1.8,2.4-3.4c-0.1-0.8-0.6-1.4-1.2-1.9L169,67.1c-4.2-3-10-2-12.9,2.2
						c0,0,0,0,0,0l-38.7,54.4c41.2,11.6,81.7,25.9,122.2,40L285.5,155.9z"/>
				</g>
				
					<linearGradient id="SVGID_42_" gradientUnits="userSpaceOnUse" x1="15.1437" y1="529.0336" x2="15.1437" y2="656.3464" gradientTransform="matrix(-0.9488 0.316 0.316 0.9488 -6.7184 -437.4012)">
					<stop  offset="0" style="stop-color:#FF66BB"/>
					<stop  offset="4.000000e-02" style="stop-color:#FF71AA"/>
					<stop  offset="0.1" style="stop-color:#FF838F"/>
					<stop  offset="0.18" style="stop-color:#FF9279"/>
					<stop  offset="0.28" style="stop-color:#FF9D68"/>
					<stop  offset="0.39" style="stop-color:#FFA55D"/>
					<stop  offset="0.55" style="stop-color:#FFAA56"/>
					<stop  offset="1" style="stop-color:#FFAB54"/>
				</linearGradient>
				<path class="st48" d="M114.9,127.2l-42.6,59.9c-0.9,1.3-0.6,3.1,0.7,4c0.6,0.4,1.4,0.6,2.1,0.5l210.6-35.6
					c1.5-0.3,2.6-1.7,2.3-3.3c-0.1-0.7-0.5-1.4-1.2-1.8L168.4,66.6c-3.8-2.7-9.2-1.8-11.9,2l-22.9,32.2L114.9,127.2z"/>
				<path class="st46" d="M46.4,260.1c0,0,8.5-19.7,14.6-34l32.6-13.4l32-21.4c-3.5-7.6-12.5-10.9-20.2-7.4l-13.7,9.3l-13.4,4.7
					l-9.7-3.9l3.9-19.9l0.2-1.4l0.6-5.4c0-0.4,0.2-0.8,0.4-1.1l13.4-16l28.4-16.1c13.4-9.2,4.8-20.6,4.8-20.6l-44.2,23.7l-23.8,19.7
					c-1.3,1.1-2.2,2.5-2.6,4.1l-10.3,38.1L25,242.6"/>
				<path class="st46" d="M113.4,199.5l10-6.9c-3-7-10.8-2.6-15.2-0.7L113.4,199.5z"/>
				<path class="st46" d="M119.4,114.1l-9.6,5.1l2.1,4C111.9,123.2,122.1,118.9,119.4,114.1z"/>
				<path class="st46" d="M-30.4,323.2c5.5-12,12.5-23.3,19.4-34.5c11-17.8,21.2-35.2,32.2-53c5.3,12.3,15.7,21.7,28.5,25.6
					c-10.4,27.8-17.5,83.3-20.7,112.8"/>
				
					<linearGradient id="SVGID_43_" gradientUnits="userSpaceOnUse" x1="1379.6616" y1="444.2789" x2="1197.5801" y2="444.2789" gradientTransform="matrix(0.9194 0.3933 0.3933 -0.9194 -297.8513 4.6233)">
					<stop  offset="0" style="stop-color:#D996D3"/>
					<stop  offset="1" style="stop-color:#9EE2FA"/>
				</linearGradient>
				<path class="st49" d="M981.1,65.4L1094,20.1c2.1-0.8,4.4,0.2,5.2,2.2l45.3,112.9c0.8,2.1-0.2,4.4-2.2,5.2l-112.9,45.3
					c-2.1,0.8-4.4-0.2-5.2-2.2L978.8,70.6C978,68.6,979,66.2,981.1,65.4z"/>
				<g class="st33">
					
						<image style="overflow:visible;enable-background:new    ;" width="994" height="995" xlink:href="C584EC368486A2E4.png"  transform="matrix(0.24 0 0 0.2398 942.44 -16.35)">
					</image>
				</g>
				<g class="st42">
					
						<linearGradient id="SVGID_44_" gradientUnits="userSpaceOnUse" x1="1123.09" y1="263.3679" x2="1054.38" y2="265.1979" gradientTransform="matrix(1 0 0 -1 0 370)">
						<stop  offset="0" style="stop-color:#FFFFFF;stop-opacity:0"/>
						<stop  offset="1" style="stop-color:#FFFFFF"/>
					</linearGradient>
					<path class="st50" d="M1144.5,135.4l-36.2-90.3c-3.6-1.5-7.3-2.6-11.1-3.4c-16-3.3-33.6-0.3-46.6,8.9
						c-4.4,3.1-8.2,6.9-11.2,11.3c-23.9,36.4-3.2,81.8,28.3,108.6l74.5-29.9C1144.3,139.7,1145.3,137.4,1144.5,135.4z"/>
				</g>
				
					<linearGradient id="SVGID_45_" gradientUnits="userSpaceOnUse" x1="1105.3489" y1="254.1885" x2="1045.3789" y2="297.2785" gradientTransform="matrix(1 0 0 -1 0 370)">
					<stop  offset="0" style="stop-color:#FFFFFF;stop-opacity:0"/>
					<stop  offset="1" style="stop-color:#FFFFFF"/>
				</linearGradient>
				<circle class="st51" cx="1084.9" cy="101.1" r="32.4"/>
				<path class="st45" d="M1253.3,154.9l-25.9-16.2c5.1-16.7-12.1-32.5-21.7-39l-28.5-17.7l0,0l-5-2.8c-4.4-3-10.4-1.9-13.4,2.5
					c-2.2,3.3-2.3,7.6,0,10.8c0.2,0.3,13.2,11.7,13.5,12L1155,90c-4.4-3-10.4-1.9-13.4,2.5c-2.2,3.2-2.3,7.4-0.1,10.7
					c0.4,0.6,18.3,14.4,18.8,14.9c-0.7-0.4-21.5-16.2-22.2-16.4c-5-1.7-10.5,0.9-12.3,5.9c-1.2,3.5-0.3,7.3,2.3,10
					c0.2,0.2,24.7,15.1,24.9,15.3l-25.1-15.2l-22.1-15.1l-12.7-8.7c-4-2.8-9.5-2.1-12.5,1.7c-3.1,3.9-2.4,9.7,1.5,12.8
					c0.2,0.1,0.3,0.2,0.5,0.4l12.9,8.8l34.1,23.3l23,15.7l-22.8,4.9c-9.9,2-16.3,11.7-14.3,21.6c0,0,0,0,0,0l48.7-11.4
					c3.6-0.7,7.1-1.4,10.7-1.7c6.2-0.6,17.5-0.3,31.8-8.6l26.8,21.8"/>
				<path class="st45" d="M1132.8,177.2l-13.1,2.7c-2-9.1,5.7-13.7,10.4-14.6L1132.8,177.2z"/>
				<path class="st45" d="M1084.4,106.9c-3-2-3.9-6.1-1.9-9.1s6.1-3.9,9.1-1.9l7.5,4.7l-7.7,10.8L1084.4,106.9z"/>
				<polygon class="st45" points="1287.3,160.9 1251.6,208.2 1229.2,188.9 1262.2,145.2 				"/>
				<polyline class="st45" points="1253.3,205.9 1404.1,319.6 1440.8,273.1 1285.5,163.2 				"/>
			</g>
		</g>
		<g class="st2">
			
				<image style="overflow:visible;enable-background:new    ;" width="514" height="716" xlink:href="C584EC368486A2E7.png"  transform="matrix(0.2395 0 0 0.2393 750.9 -12.02)">
			</image>
		</g>
	</g>
</g>
</svg>
